Coordinates
version=1
nRows=65
nColumns=12
inDegrees=yes

Units are S.I. units (second, meters, Newtons, ...)
Angles are in degrees

endheader
time	SC_y	SC_z	SC_x	AC_y	AC_z	AC_x	GH_y	GH_z	GH_yy	EL_x	PS_y
       0.0              -51.13          25.39          65.84          47.86          2.321           5.32          24.54          2.102         -163.3          80.33          23.34
   0.01377              -51.13          25.39          65.83          47.85          2.322          5.321          24.56          2.108         -163.3          80.33          23.34
   0.02754              -51.13          25.38          65.82          47.85          2.322          5.321          24.58          2.114         -163.2          80.32          23.35
    0.0413              -51.13          25.38          65.81          47.85          2.323          5.321           24.6          2.121         -163.2          80.32          23.36
   0.05507              -51.13          25.38           65.8          47.85          2.323          5.322          24.62          2.129         -163.2          80.31          23.37
   0.06884              -51.14          25.37          65.79          47.85          2.324          5.322          24.65          2.137         -163.1          80.31          23.38
   0.08261              -51.14          25.37          65.78          47.85          2.325          5.323          24.68          2.145         -163.1           80.3          23.38
   0.09638              -51.14          25.37          65.77          47.85          2.325          5.323           24.7          2.154         -163.0          80.29          23.39
    0.1101              -51.14          25.36          65.75          47.85          2.326          5.324          24.73          2.164         -163.0          80.29          23.41
    0.1239              -51.14          25.36          65.74          47.84          2.327          5.324          24.77          2.175         -162.9          80.28          23.42
    0.1377              -51.14          25.35          65.72          47.84          2.328          5.325           24.8          2.186         -162.9          80.27          23.43
    0.1515              -51.15          25.35          65.71          47.84          2.329          5.325          24.84          2.198         -162.8          80.26          23.44
    0.1652              -51.15          25.34          65.69          47.84           2.33          5.326          24.88          2.211         -162.7          80.25          23.46
     0.179              -51.15          25.34          65.67          47.84          2.331          5.327          24.92          2.225         -162.7          80.24          23.47
    0.1928              -51.16          25.33          65.65          47.84          2.332          5.327          24.97           2.24         -162.6          80.23          23.49
    0.2065              -51.16          25.33          65.63          47.83          2.333          5.328          25.02          2.257         -162.5          80.22          23.51
    0.2203              -51.16          25.32          65.61          47.83          2.334          5.329          25.08          2.275         -162.4           80.2          23.53
    0.2341              -51.17          25.31          65.58          47.83          2.336           5.33          25.14          2.294         -162.3          80.19          23.55
    0.2478              -51.17           25.3          65.55          47.82          2.337          5.331           25.2          2.316         -162.2          80.17          23.57
    0.2616              -51.17          25.29          65.52          47.82          2.339          5.332          25.28          2.339         -162.0          80.16           23.6
    0.2754              -51.18          25.28          65.49          47.82          2.341          5.334          25.36          2.365         -161.9          80.14          23.63
    0.2891              -51.18          25.27          65.45          47.81          2.343          5.335          25.44          2.393         -161.7          80.11          23.66
    0.3029              -51.19          25.26          65.41          47.81          2.346          5.337          25.54          2.424         -161.6          80.09           23.7
    0.3167               -51.2          25.24          65.36           47.8          2.348          5.339          25.65          2.458         -161.4          80.07          23.73
    0.3304               -51.2          25.23          65.31           47.8          2.351           5.34          25.77          2.497         -161.2          80.04          23.78
    0.3442              -51.21          25.21          65.25          47.79          2.354          5.343           25.9           2.54         -161.0           80.0          23.82
     0.358              -51.22          25.19          65.19          47.79          2.358          5.345          26.05          2.588         -160.7          79.97          23.88
    0.3717              -51.23          25.17          65.12          47.78          2.362          5.348          26.22          2.642         -160.4          79.93          23.94
    0.3855              -51.24          25.14          65.03          47.77          2.367          5.351           26.4          2.703         -160.1          79.88          24.01
    0.3993              -51.25          25.12          64.94          47.76          2.372          5.354          26.62          2.772         -159.7          79.83          24.08
     0.413              -51.27          25.08          64.84          47.75          2.378          5.358          26.87          2.851         -159.3          79.77          24.17
    0.4268              -51.29          25.05          64.72          47.73          2.385          5.363          27.15          2.942         -158.8           79.7          24.27
    0.4406               -51.3           25.0          64.58          47.72          2.392          5.368          27.47          3.047         -158.2          79.63          24.39
    0.4544              -51.33          24.96          64.41           47.7          2.402          5.375          27.85          3.168         -157.6          79.53          24.53
    0.4681              -51.35           24.9          64.22          47.68          2.412          5.382          28.29          3.311         -156.8          79.43          24.69
    0.4819              -51.38          24.83           64.0          47.66          2.425           5.39          28.81          3.479         -155.9           79.3          24.87
    0.4957              -51.42          24.75          63.73          47.63           2.44            5.4          29.43          3.678         -154.8          79.15           25.1
    0.5094              -51.47          24.65          63.41          47.59          2.458          5.412          30.17          3.917         -153.5          78.97          25.36
    0.5232              -51.52          24.53          63.03          47.55           2.48          5.427          31.07          4.207         -151.9          78.76          25.68
     0.537              -51.59          24.39          62.55           47.5          2.506          5.445          32.17           4.56         -150.0          78.49          26.08
    0.5507              -51.67          24.21          61.97          47.44          2.539          5.467          33.52          4.996         -147.7          78.16          26.57
    0.5645              -51.77          23.99          61.25          47.36           2.58          5.495          35.21          5.541         -144.7          77.76          27.17
    0.5783              -51.89          23.71          60.33          47.26          2.631          5.529          37.33          6.226         -141.0          77.24          27.94
     0.592              -52.06          23.36          59.17          47.14          2.697          5.574          40.04          7.097         -136.3          76.59          28.91
    0.6058              -52.26           22.9          57.68          46.98          2.781           5.63           43.5          8.212         -130.3          75.76          30.15
    0.6196              -52.53          22.32          55.77          46.77          2.888          5.702          47.94          9.643         -122.6          74.68          31.75
    0.6333              -52.87          21.58          53.33          46.51          3.026          5.795          53.61          11.47         -112.7          73.31          33.79
    0.6471              -53.29          20.64          50.26          46.18          3.199          5.911          60.74          13.77         -100.3          71.59          36.35
    0.6609              -53.81           19.5          46.52          45.78          3.409          6.053          69.43          16.57         -85.12          69.49          39.48
    0.6746              -54.42          18.18          42.19          45.31          3.653          6.218           79.5          19.82         -67.58          67.06           43.1
    0.6884              -55.07          16.75          37.49           44.8          3.918          6.396           90.4          23.33         -48.58          64.43          47.02
    0.7022              -55.72          15.32           32.8           44.3          4.182          6.574          101.3          26.85         -29.58          61.79          50.95
    0.7159              -56.32           14.0          28.46          43.83          4.426          6.738          111.4          30.09         -12.04          59.36          54.57
    0.7297              -56.84          12.86          24.72          43.43          4.636           6.88          120.1           32.9          3.102          57.26          57.69
    0.7435              -57.27          11.93          21.66           43.1          4.809          6.997          127.2          35.19          15.52          55.54          60.26
    0.7573              -57.61          11.19          19.22          42.83          4.947          7.089          132.9          37.02           25.4          54.17           62.3
     0.771              -57.87           10.6           17.3          42.63          5.054          7.162          137.3          38.45          33.14           53.1          63.89
    0.7848              -58.08          10.15          15.82          42.47          5.138          7.218          140.8          39.57          39.16          52.26          65.14
    0.7986              -58.24          9.796          14.65          42.34          5.204          7.262          143.5          40.44          43.87          51.61          66.11
    0.8123              -58.37          9.517          13.74          42.24          5.255          7.297          145.6          41.12          47.57           51.1          66.87
    0.8261              -58.47          9.296          13.01          42.17          5.296          7.325          147.3          41.67          50.51          50.69          67.48
    0.8399              -58.55          9.119          12.43           42.1          5.329          7.347          148.6           42.1          52.87          50.36          67.97
    0.8536              -58.62          8.975          11.96          42.05          5.355          7.365          149.7          42.46          54.78           50.1          68.36
    0.8674              -58.67          8.857          11.57          42.01          5.377          7.379          150.6          42.75          56.35          49.88          68.68
    0.8812              -58.71           8.76          11.25          41.98          5.395          7.391          151.4          42.99          57.64           49.7          68.95
